<svg width="516" height="45" viewBox="0 0 516 45" fill="none" xmlns="http://www.w3.org/2000/svg">
<rect width="516" height="45" fill="white"/>
<path d="M416 12C410.486 12 406 16.486 406 22C406 27.514 410.486 32 416 32C421.514 32 426 27.514 426 22C426 16.486 421.514 12 416 12ZM408 22C408 21.101 408.156 20.238 408.431 19.431L410 21L412 23V25L414 27L415 28V29.931C411.061 29.436 408 26.072 408 22ZM422.33 26.873C421.677 26.347 420.687 26 420 26V25C420 24.4696 419.789 23.9609 419.414 23.5858C419.039 23.2107 418.53 23 418 23H414V20C414.53 20 415.039 19.7893 415.414 19.4142C415.789 19.0391 416 18.5304 416 18V17H417C417.53 17 418.039 16.7893 418.414 16.4142C418.789 16.0391 419 15.5304 419 15V14.589C421.928 15.778 424 18.65 424 22C424 23.7647 423.412 25.4791 422.33 26.873V26.873Z" fill="black"/>
<path d="M18 22H24V28H18V22Z" fill="black"/>
<path d="M26 14H24V12H22V14H16V12H14V14H12C10.897 14 10 14.897 10 16V30C10 31.103 10.897 32 12 32H26C27.103 32 28 31.103 28 30V16C28 14.897 27.103 14 26 14ZM26.001 30H12V18H26L26.001 30Z" fill="black"/>
<path d="M298.487 27.14L294.422 23.444C294.23 23.2694 293.977 23.1762 293.718 23.1842C293.458 23.1923 293.212 23.3008 293.031 23.487L290.638 25.948C290.062 25.838 288.904 25.477 287.712 24.288C286.52 23.095 286.159 21.934 286.052 21.362L288.511 18.968C288.697 18.7871 288.806 18.5408 288.814 18.2812C288.822 18.0216 288.729 17.769 288.554 17.577L284.859 13.513C284.684 13.3204 284.441 13.2035 284.181 13.1873C283.921 13.171 283.666 13.2567 283.468 13.426L281.298 15.287C281.125 15.4605 281.022 15.6915 281.008 15.936C280.993 16.186 280.707 22.108 285.299 26.702C289.305 30.707 294.323 31 295.705 31C295.907 31 296.031 30.994 296.064 30.992C296.309 30.9783 296.539 30.8747 296.712 30.701L298.572 28.53C298.742 28.333 298.828 28.0774 298.812 27.8177C298.797 27.558 298.68 27.3148 298.487 27.14V27.14Z" fill="black"/>
<path d="M98 14H82C80.897 14 80 14.897 80 16V28C80 29.103 80.897 30 82 30H98C99.103 30 100 29.103 100 28V16C100 14.897 99.103 14 98 14ZM98 16V16.511L90 22.734L82 16.512V16H98ZM82 28V19.044L89.386 24.789C89.5611 24.9265 89.7773 25.0013 90 25.0013C90.2227 25.0013 90.4389 24.9265 90.614 24.789L98 19.044L98.002 28H82Z" fill="black"/>
<path d="M47.5586 19H46.3574V16.5977H39.6543V15.4023H46.3574V11.7988H42.0508C41.6406 11.7988 41.2539 11.8789 40.8906 12.0391C40.5273 12.1953 40.2109 12.4102 39.9414 12.6836C39.6719 12.9531 39.457 13.2695 39.2969 13.6328C39.1406 13.9961 39.0625 14.3848 39.0625 14.7988V19H37.8613V14.7988C37.8613 14.4121 37.9102 14.041 38.0078 13.6855C38.1094 13.3262 38.25 12.9922 38.4297 12.6836C38.6133 12.3711 38.832 12.0879 39.0859 11.834C39.3438 11.5762 39.627 11.3555 39.9355 11.1719C40.248 10.9883 40.582 10.8477 40.9375 10.75C41.293 10.6484 41.6641 10.5977 42.0508 10.5977H47.5586V19ZM58.3691 19H52.9609C52.3789 19 51.8496 18.8906 51.373 18.6719C50.8965 18.4531 50.4883 18.1543 50.1484 17.7754C49.8125 17.3965 49.5527 16.9512 49.3691 16.4395C49.1855 15.9277 49.0938 15.3809 49.0938 14.7988C49.0938 14.2207 49.1855 13.6777 49.3691 13.1699C49.5527 12.6582 49.8125 12.2129 50.1484 11.834C50.4883 11.4512 50.8965 11.1504 51.373 10.9316C51.8496 10.709 52.3789 10.5977 52.9609 10.5977H58.3691V11.7988H52.9609C52.5469 11.7988 52.1738 11.8789 51.8418 12.0391C51.5137 12.1953 51.2344 12.4102 51.0039 12.6836C50.7773 12.9531 50.6016 13.2695 50.4766 13.6328C50.3555 13.9961 50.2949 14.3848 50.2949 14.7988C50.2949 15.2129 50.3555 15.6035 50.4766 15.9707C50.6016 16.334 50.7773 16.6523 51.0039 16.9258C51.2344 17.1953 51.5137 17.4082 51.8418 17.5645C52.1738 17.7207 52.5469 17.7988 52.9609 17.7988H57.168V15.4023H52.082V14.2012H58.3691V19ZM68.8223 19H60.1328V10.5977H68.8223V11.7988H61.334V17.7988H68.8223V19ZM67.8027 15.4023H61.9316V14.2012H67.8027V15.4023ZM54.3379 33H46.5391V30.5977C46.5391 30.2695 46.6016 29.9609 46.7266 29.6719C46.8555 29.3789 47.0273 29.125 47.2422 28.9102C47.4609 28.6914 47.7148 28.5195 48.0039 28.3945C48.2969 28.2656 48.6094 28.2012 48.9414 28.2012H51.9414C52.1055 28.2012 52.2598 28.1699 52.4043 28.1074C52.5527 28.0449 52.6797 27.959 52.7852 27.8496C52.8945 27.7402 52.9805 27.6133 53.043 27.4688C53.1094 27.3203 53.1426 27.1641 53.1426 27C53.1426 26.8359 53.1094 26.6816 53.043 26.5371C52.9805 26.3887 52.8945 26.2598 52.7852 26.1504C52.6797 26.041 52.5527 25.9551 52.4043 25.8926C52.2598 25.8301 52.1055 25.7988 51.9414 25.7988H47.1426V24.5977H51.9414C52.2695 24.5977 52.5781 24.6621 52.8672 24.791C53.1602 24.916 53.4141 25.0879 53.6289 25.3066C53.8477 25.5215 54.0195 25.7754 54.1445 26.0684C54.2734 26.3613 54.3379 26.6719 54.3379 27C54.3379 27.3281 54.2734 27.6387 54.1445 27.9316C54.0195 28.2246 53.8477 28.4805 53.6289 28.6992C53.4141 28.9141 53.1602 29.0859 52.8672 29.2148C52.5781 29.3398 52.2695 29.4023 51.9414 29.4023H48.9414C48.7773 29.4023 48.6211 29.4336 48.4727 29.4961C48.3242 29.5586 48.1953 29.6445 48.0859 29.7539C47.9766 29.8633 47.8887 29.9902 47.8223 30.1348C47.7598 30.2793 47.7285 30.4336 47.7285 30.5977V31.7988H54.3379V33ZM57.7129 33H56.5117V25.7988H55.3105V24.5977H57.7129V33Z" fill="black"/>
<path d="M178.697 19H170.008V10.5977H178.697V11.7988H171.209V17.7988H178.697V19ZM177.678 15.4023H171.807V14.2012H177.678V15.4023ZM186.238 19H185.037V14.7988C185.037 14.3848 184.959 13.9961 184.803 13.6328C184.646 13.2695 184.432 12.9531 184.158 12.6836C183.889 12.4102 183.57 12.1953 183.203 12.0391C182.84 11.8789 182.451 11.7988 182.037 11.7988H181.393V19H180.191V10.5977H182.037C182.42 10.5977 182.787 10.6484 183.139 10.75C183.494 10.8477 183.826 10.9863 184.135 11.166C184.443 11.3457 184.725 11.5605 184.979 11.8105C185.232 12.0605 185.453 12.3379 185.641 12.6426C185.824 12.3379 186.043 12.0605 186.297 11.8105C186.551 11.5605 186.832 11.3457 187.141 11.166C187.449 10.9863 187.779 10.8477 188.131 10.75C188.486 10.6484 188.855 10.5977 189.238 10.5977H191.09V19H189.889V11.7988H189.238C188.824 11.7988 188.436 11.8789 188.072 12.0391C187.709 12.1953 187.391 12.4102 187.117 12.6836C186.848 12.9531 186.633 13.2695 186.473 13.6328C186.316 13.9961 186.238 14.3848 186.238 14.7988V19ZM202.656 19H201.455V16.5977H194.752V15.4023H201.455V11.7988H197.148C196.738 11.7988 196.352 11.8789 195.988 12.0391C195.625 12.1953 195.309 12.4102 195.039 12.6836C194.77 12.9531 194.555 13.2695 194.395 13.6328C194.238 13.9961 194.16 14.3848 194.16 14.7988V19H192.959V14.7988C192.959 14.4121 193.008 14.041 193.105 13.6855C193.207 13.3262 193.348 12.9922 193.527 12.6836C193.711 12.3711 193.93 12.0879 194.184 11.834C194.441 11.5762 194.725 11.3555 195.033 11.1719C195.346 10.9883 195.68 10.8477 196.035 10.75C196.391 10.6484 196.762 10.5977 197.148 10.5977H202.656V19ZM205.873 19H204.672V10.5977H205.873V19ZM215.922 19H207.895V10.5977H209.096V17.7988H215.922V19ZM218.617 18.0977C218.617 18.2227 218.594 18.3398 218.547 18.4492C218.5 18.5586 218.436 18.6543 218.354 18.7363C218.271 18.8184 218.176 18.8828 218.066 18.9297C217.957 18.9766 217.842 19 217.721 19C217.596 19 217.479 18.9766 217.369 18.9297C217.26 18.8828 217.164 18.8184 217.082 18.7363C217 18.6543 216.936 18.5586 216.889 18.4492C216.842 18.3398 216.818 18.2227 216.818 18.0977C216.818 17.9766 216.842 17.8613 216.889 17.752C216.936 17.6426 217 17.5469 217.082 17.4648C217.164 17.3828 217.26 17.3184 217.369 17.2715C217.479 17.2246 217.596 17.2012 217.721 17.2012C217.842 17.2012 217.957 17.2246 218.066 17.2715C218.176 17.3184 218.271 17.3828 218.354 17.4648C218.436 17.5469 218.5 17.6426 218.547 17.752C218.594 17.8613 218.617 17.9766 218.617 18.0977ZM218.617 13.2871C218.617 13.4121 218.594 13.5293 218.547 13.6387C218.5 13.748 218.436 13.8438 218.354 13.9258C218.271 14.0078 218.176 14.0723 218.066 14.1191C217.957 14.166 217.842 14.1895 217.721 14.1895C217.596 14.1895 217.479 14.166 217.369 14.1191C217.26 14.0723 217.164 14.0078 217.082 13.9258C217 13.8438 216.936 13.748 216.889 13.6387C216.842 13.5293 216.818 13.4121 216.818 13.2871C216.818 13.166 216.842 13.0508 216.889 12.9414C216.936 12.832 217 12.7363 217.082 12.6543C217.164 12.5723 217.26 12.5078 217.369 12.4609C217.479 12.4141 217.596 12.3906 217.721 12.3906C217.842 12.3906 217.957 12.4141 218.066 12.4609C218.176 12.5078 218.271 12.5723 218.354 12.6543C218.436 12.7363 218.5 12.832 218.547 12.9414C218.594 13.0508 218.617 13.166 218.617 13.2871ZM114.678 31.0312C114.678 31.3047 114.625 31.5605 114.52 31.7988C114.418 32.0371 114.277 32.2461 114.098 32.4258C113.918 32.6016 113.707 32.7422 113.465 32.8477C113.227 32.9492 112.971 33 112.697 33H108.654V31.7871H112.697C112.807 31.7871 112.908 31.7676 113.002 31.7285C113.096 31.6895 113.176 31.6367 113.242 31.5703C113.312 31.5 113.367 31.4199 113.406 31.3301C113.445 31.2363 113.465 31.1367 113.465 31.0312C113.465 30.9219 113.445 30.8203 113.406 30.7266C113.367 30.6328 113.312 30.5527 113.242 30.4863C113.176 30.416 113.096 30.3613 113.002 30.3223C112.908 30.2832 112.807 30.2637 112.697 30.2637H108.654V29.0508H111.713C111.83 29.0469 111.939 29.0254 112.041 28.9863C112.143 28.9473 112.23 28.8965 112.305 28.834C112.383 28.7676 112.443 28.6914 112.486 28.6055C112.529 28.5156 112.551 28.4199 112.551 28.3184C112.551 28.2129 112.531 28.1172 112.492 28.0312C112.453 27.9414 112.398 27.8633 112.328 27.7969C112.262 27.7305 112.182 27.6797 112.088 27.6445C111.998 27.6055 111.9 27.5859 111.795 27.5859H108.086V33H106.861V26.3789H111.795C112.064 26.3789 112.318 26.4297 112.557 26.5312C112.799 26.6328 113.008 26.7715 113.184 26.9473C113.363 27.1191 113.504 27.3242 113.605 27.5625C113.711 27.7969 113.764 28.0488 113.764 28.3184C113.764 28.4902 113.74 28.6523 113.693 28.8047C113.65 28.957 113.59 29.0996 113.512 29.2324C113.684 29.3105 113.84 29.4121 113.98 29.5371C114.125 29.6582 114.248 29.7969 114.35 29.9531C114.455 30.1094 114.535 30.2793 114.59 30.4629C114.648 30.6426 114.678 30.832 114.678 31.0312ZM123.689 33H122.055L120.18 31.2129H117.748V30.0234H121.07C121.238 30.0234 121.396 29.9902 121.545 29.9238C121.693 29.8574 121.822 29.7695 121.932 29.6602C122.041 29.5469 122.127 29.416 122.189 29.2676C122.252 29.1191 122.283 28.9629 122.283 28.7988C122.283 28.6309 122.252 28.4746 122.189 28.3301C122.127 28.1816 122.041 28.0527 121.932 27.9434C121.822 27.834 121.693 27.748 121.545 27.6855C121.396 27.6191 121.238 27.5859 121.07 27.5859H117.121V33H115.92V26.4023H121.07C121.402 26.4023 121.715 26.4668 122.008 26.5957C122.301 26.7207 122.555 26.8926 122.77 27.1113C122.988 27.3262 123.16 27.5801 123.285 27.873C123.41 28.1621 123.473 28.4707 123.473 28.7988C123.473 29.0684 123.43 29.3281 123.344 29.5781C123.258 29.8242 123.137 30.0508 122.98 30.2578C122.828 30.4609 122.646 30.6367 122.436 30.7852C122.225 30.9336 121.994 31.043 121.744 31.1133L123.689 33ZM132.449 33H131.248V31.1895H126.625V29.9648H131.248V27.5859H128.125C127.832 27.5859 127.557 27.6426 127.299 27.7559C127.041 27.8652 126.816 28.0156 126.625 28.207C126.434 28.3984 126.281 28.623 126.168 28.8809C126.059 29.1348 126.004 29.4082 126.004 29.7012V33H124.791V29.7012C124.791 29.2402 124.879 28.8086 125.055 28.4062C125.23 28.0039 125.469 27.6523 125.77 27.3516C126.07 27.0508 126.424 26.8145 126.83 26.6426C127.236 26.4668 127.668 26.3789 128.125 26.3789H132.449V33ZM141.309 26.4023V29.7012C141.309 30.1582 141.223 30.5879 141.051 30.9902C140.879 31.3887 140.643 31.7383 140.342 32.0391C140.045 32.3359 139.697 32.5703 139.299 32.7422C138.9 32.9141 138.475 33 138.021 33H137.359C136.906 33 136.48 32.9141 136.082 32.7422C135.684 32.5664 135.334 32.3301 135.033 32.0332C134.736 31.7324 134.502 31.3828 134.33 30.9844C134.158 30.582 134.072 30.1543 134.072 29.7012V26.4023H135.273V29.7012C135.273 29.9902 135.328 30.2637 135.438 30.5215C135.547 30.7754 135.695 30.998 135.883 31.1895C136.074 31.377 136.295 31.5254 136.545 31.6348C136.799 31.7441 137.07 31.7988 137.359 31.7988H138.021C138.311 31.7988 138.582 31.7441 138.836 31.6348C139.09 31.5254 139.311 31.377 139.498 31.1895C139.686 30.998 139.834 30.7754 139.943 30.5215C140.053 30.2637 140.107 29.9902 140.107 29.7012V26.4023H141.309ZM149.248 33H142.932V26.4023H144.133V31.7988H149.248V33ZM157.158 33H150.268V26.3789H157.158V27.5859H151.48V31.7871H157.158V33ZM156.391 30.2637H152.049V29.0508H156.391V30.2637ZM165.385 33H158.494V26.3789H165.385V27.5859H159.707V31.7871H165.385V33ZM164.617 30.2637H160.275V29.0508H164.617V30.2637ZM174.701 30.2988C174.701 30.6699 174.631 31.0195 174.49 31.3477C174.35 31.6758 174.156 31.9629 173.91 32.209C173.668 32.4512 173.383 32.6445 173.055 32.7891C172.727 32.9297 172.377 33 172.006 33H166.902V31.7988H172.006C172.213 31.7988 172.406 31.7598 172.586 31.6816C172.77 31.6035 172.93 31.498 173.066 31.3652C173.203 31.2285 173.311 31.0684 173.389 30.8848C173.467 30.7012 173.506 30.5059 173.506 30.2988V27.2988C173.506 27.0918 173.467 26.8984 173.389 26.7188C173.311 26.5352 173.203 26.375 173.066 26.2383C172.93 26.1016 172.77 25.9941 172.586 25.916C172.406 25.8379 172.213 25.7988 172.006 25.7988H169.006C168.799 25.7988 168.604 25.8379 168.42 25.916C168.236 25.9941 168.076 26.1016 167.939 26.2383C167.807 26.375 167.701 26.5352 167.623 26.7188C167.545 26.8984 167.506 27.0918 167.506 27.2988C167.506 27.5059 167.545 27.7012 167.623 27.8848C167.701 28.0684 167.807 28.2285 167.939 28.3652C168.076 28.498 168.236 28.6035 168.42 28.6816C168.604 28.7598 168.799 28.7988 169.006 28.7988H172.902V30H169.006C168.631 30 168.279 29.9297 167.951 29.7891C167.623 29.6445 167.336 29.4512 167.09 29.209C166.848 28.9629 166.656 28.6758 166.516 28.3477C166.375 28.0195 166.305 27.6699 166.305 27.2988C166.305 26.9277 166.375 26.5781 166.516 26.25C166.656 25.9219 166.848 25.6367 167.09 25.3945C167.336 25.1484 167.623 24.9551 167.951 24.8145C168.279 24.6699 168.631 24.5977 169.006 24.5977H172.006C172.377 24.5977 172.727 24.6699 173.055 24.8145C173.383 24.9551 173.668 25.1484 173.91 25.3945C174.156 25.6367 174.35 25.9219 174.49 26.25C174.631 26.5781 174.701 26.9277 174.701 27.2988V30.2988ZM184.311 30.2988C184.311 30.6699 184.24 31.0195 184.1 31.3477C183.959 31.6758 183.766 31.9629 183.52 32.209C183.277 32.4512 182.992 32.6445 182.664 32.7891C182.336 32.9297 181.986 33 181.615 33H176.512V31.7988H181.615C181.822 31.7988 182.016 31.7598 182.195 31.6816C182.379 31.6035 182.539 31.498 182.676 31.3652C182.812 31.2285 182.92 31.0684 182.998 30.8848C183.076 30.7012 183.115 30.5059 183.115 30.2988V27.2988C183.115 27.0918 183.076 26.8984 182.998 26.7188C182.92 26.5352 182.812 26.375 182.676 26.2383C182.539 26.1016 182.379 25.9941 182.195 25.916C182.016 25.8379 181.822 25.7988 181.615 25.7988H178.615C178.408 25.7988 178.213 25.8379 178.029 25.916C177.846 25.9941 177.686 26.1016 177.549 26.2383C177.416 26.375 177.311 26.5352 177.232 26.7188C177.154 26.8984 177.115 27.0918 177.115 27.2988C177.115 27.5059 177.154 27.7012 177.232 27.8848C177.311 28.0684 177.416 28.2285 177.549 28.3652C177.686 28.498 177.846 28.6035 178.029 28.6816C178.213 28.7598 178.408 28.7988 178.615 28.7988H182.512V30H178.615C178.24 30 177.889 29.9297 177.561 29.7891C177.232 29.6445 176.945 29.4512 176.699 29.209C176.457 28.9629 176.266 28.6758 176.125 28.3477C175.984 28.0195 175.914 27.6699 175.914 27.2988C175.914 26.9277 175.984 26.5781 176.125 26.25C176.266 25.9219 176.457 25.6367 176.699 25.3945C176.945 25.1484 177.232 24.9551 177.561 24.8145C177.889 24.6699 178.24 24.5977 178.615 24.5977H181.615C181.986 24.5977 182.336 24.6699 182.664 24.8145C182.992 24.9551 183.277 25.1484 183.52 25.3945C183.766 25.6367 183.959 25.9219 184.1 26.25C184.24 26.5781 184.311 26.9277 184.311 27.2988V30.2988ZM193.92 30.2988C193.92 30.6699 193.85 31.0195 193.709 31.3477C193.568 31.6758 193.375 31.9629 193.129 32.209C192.887 32.4512 192.602 32.6445 192.273 32.7891C191.945 32.9297 191.596 33 191.225 33H186.121V31.7988H191.225C191.432 31.7988 191.625 31.7598 191.805 31.6816C191.988 31.6035 192.148 31.498 192.285 31.3652C192.422 31.2285 192.529 31.0684 192.607 30.8848C192.686 30.7012 192.725 30.5059 192.725 30.2988V27.2988C192.725 27.0918 192.686 26.8984 192.607 26.7188C192.529 26.5352 192.422 26.375 192.285 26.2383C192.148 26.1016 191.988 25.9941 191.805 25.916C191.625 25.8379 191.432 25.7988 191.225 25.7988H188.225C188.018 25.7988 187.822 25.8379 187.639 25.916C187.455 25.9941 187.295 26.1016 187.158 26.2383C187.025 26.375 186.92 26.5352 186.842 26.7188C186.764 26.8984 186.725 27.0918 186.725 27.2988C186.725 27.5059 186.764 27.7012 186.842 27.8848C186.92 28.0684 187.025 28.2285 187.158 28.3652C187.295 28.498 187.455 28.6035 187.639 28.6816C187.822 28.7598 188.018 28.7988 188.225 28.7988H192.121V30H188.225C187.85 30 187.498 29.9297 187.17 29.7891C186.842 29.6445 186.555 29.4512 186.309 29.209C186.066 28.9629 185.875 28.6758 185.734 28.3477C185.594 28.0195 185.523 27.6699 185.523 27.2988C185.523 26.9277 185.594 26.5781 185.734 26.25C185.875 25.9219 186.066 25.6367 186.309 25.3945C186.555 25.1484 186.842 24.9551 187.17 24.8145C187.498 24.6699 187.85 24.5977 188.225 24.5977H191.225C191.596 24.5977 191.945 24.6699 192.273 24.8145C192.602 24.9551 192.887 25.1484 193.129 25.3945C193.375 25.6367 193.568 25.9219 193.709 26.25C193.85 26.5781 193.92 26.9277 193.92 27.2988V30.2988ZM199.68 30.5273H198.227C198.211 30.5273 198.189 30.5293 198.162 30.5332C198.135 30.5332 198.107 30.541 198.08 30.5566C198.053 30.5723 198.027 30.5977 198.004 30.6328C197.984 30.668 197.975 30.7168 197.975 30.7793C197.975 30.7949 197.975 30.8164 197.975 30.8438C197.979 30.8711 197.988 30.8984 198.004 30.9258C198.02 30.9531 198.045 30.9785 198.08 31.002C198.115 31.0215 198.164 31.0312 198.227 31.0312H199.979V29.2793C199.979 29.2637 199.977 29.2422 199.973 29.2148C199.973 29.1875 199.965 29.1602 199.949 29.1328C199.934 29.1055 199.908 29.082 199.873 29.0625C199.838 29.0391 199.789 29.0273 199.727 29.0273H197.641V28.0312H199.727C199.852 28.0312 199.986 28.0547 200.131 28.1016C200.279 28.1445 200.416 28.2148 200.541 28.3125C200.666 28.4102 200.77 28.5391 200.852 28.6992C200.934 28.8594 200.975 29.0527 200.975 29.2793V31.0312H201.227C201.246 31.0312 201.27 31.0312 201.297 31.0312C201.328 31.0273 201.355 31.0176 201.379 31.002C201.406 30.9863 201.43 30.9609 201.449 30.9258C201.469 30.8906 201.479 30.8418 201.479 30.7793V28.5352C201.479 28.3086 201.438 28.1289 201.355 27.9961C201.273 27.8594 201.176 27.7578 201.062 27.6914C200.953 27.6211 200.842 27.5762 200.729 27.5566C200.615 27.5371 200.529 27.5273 200.471 27.5273H197.482C197.256 27.5273 197.076 27.5684 196.943 27.6504C196.811 27.7324 196.709 27.8301 196.639 27.9434C196.568 28.0527 196.523 28.1641 196.504 28.2773C196.484 28.3906 196.475 28.4766 196.475 28.5352V31.5352C196.475 31.7656 196.516 31.9473 196.598 32.0801C196.68 32.209 196.775 32.3086 196.885 32.3789C196.998 32.4453 197.111 32.4883 197.225 32.5078C197.338 32.5234 197.424 32.5312 197.482 32.5312H198.227V33.5273H197.482C197.283 33.5273 197.066 33.4922 196.832 33.4219C196.598 33.3516 196.379 33.2363 196.176 33.0762C195.977 32.9199 195.811 32.7168 195.678 32.4668C195.545 32.2129 195.479 31.9023 195.479 31.5352V28.5352C195.479 28.3359 195.514 28.1191 195.584 27.8848C195.654 27.6504 195.768 27.4336 195.924 27.2344C196.084 27.0312 196.291 26.8633 196.545 26.7305C196.799 26.5977 197.111 26.5312 197.482 26.5312H200.482C200.615 26.5312 200.756 26.5469 200.904 26.5781C201.057 26.6094 201.207 26.6582 201.355 26.7246C201.504 26.791 201.645 26.877 201.777 26.9824C201.914 27.084 202.033 27.209 202.135 27.3574C202.24 27.5059 202.322 27.6777 202.381 27.873C202.443 28.0684 202.475 28.2891 202.475 28.5352V30.7793C202.475 30.9043 202.453 31.041 202.41 31.1895C202.367 31.334 202.297 31.4688 202.199 31.5938C202.102 31.7188 201.973 31.8223 201.812 31.9043C201.652 31.9863 201.457 32.0273 201.227 32.0273H198.227C198.102 32.0273 197.965 32.0059 197.816 31.9629C197.672 31.9199 197.537 31.8496 197.412 31.752C197.287 31.6543 197.184 31.5254 197.102 31.3652C197.02 31.2051 196.979 31.0098 196.979 30.7793C196.979 30.6543 197 30.5195 197.043 30.375C197.09 30.2266 197.162 30.0898 197.26 29.9648C197.361 29.8398 197.49 29.7363 197.646 29.6543C197.807 29.5723 198 29.5312 198.227 29.5312H199.68V30.5273ZM210.865 33H206.605C206.141 33 205.719 32.9141 205.34 32.7422C204.961 32.5703 204.637 32.3359 204.367 32.0391C204.098 31.7383 203.889 31.3867 203.74 30.9844C203.596 30.5781 203.523 30.1426 203.523 29.6777C203.523 29.2168 203.596 28.7871 203.74 28.3887C203.889 27.9863 204.098 27.6367 204.367 27.3398C204.637 27.043 204.961 26.8086 205.34 26.6367C205.719 26.4648 206.141 26.3789 206.605 26.3789H210.865V27.5859H206.605C206.316 27.5859 206.055 27.6406 205.82 27.75C205.59 27.8594 205.395 28.0078 205.234 28.1953C205.074 28.3828 204.951 28.6035 204.865 28.8574C204.779 29.1113 204.736 29.3848 204.736 29.6777C204.736 29.9746 204.779 30.252 204.865 30.5098C204.951 30.7637 205.074 30.9863 205.234 31.1777C205.395 31.3652 205.59 31.5137 205.82 31.623C206.055 31.7324 206.316 31.7871 206.605 31.7871H209.652V30.2637H206.213V29.0508H210.865V33ZM217.229 33H216.027V29.6777C216.027 29.3887 215.973 29.1172 215.863 28.8633C215.754 28.6094 215.604 28.3887 215.412 28.2012C215.225 28.0098 215.002 27.8594 214.744 27.75C214.49 27.6406 214.219 27.5859 213.93 27.5859H213.59V33H212.389V26.4023H213.93C214.211 26.4023 214.482 26.4375 214.744 26.5078C215.006 26.5742 215.252 26.6699 215.482 26.7949C215.717 26.916 215.932 27.0645 216.127 27.2402C216.326 27.416 216.5 27.6113 216.648 27.8262C216.801 27.6113 216.973 27.416 217.164 27.2402C217.359 27.0645 217.57 26.916 217.797 26.7949C218.023 26.6699 218.264 26.5742 218.518 26.5078C218.771 26.4375 219.037 26.4023 219.314 26.4023H220.85V33H219.648V27.5859H219.314C219.025 27.5859 218.754 27.6445 218.5 27.7617C218.25 27.8789 218.029 28.0391 217.838 28.2422C217.65 28.4453 217.502 28.6836 217.393 28.957C217.283 29.2305 217.229 29.5215 217.229 29.8301V33ZM230.137 33H228.936V31.1895H224.312V29.9648H228.936V27.5859H225.812C225.52 27.5859 225.244 27.6426 224.986 27.7559C224.729 27.8652 224.504 28.0156 224.312 28.207C224.121 28.3984 223.969 28.623 223.855 28.8809C223.746 29.1348 223.691 29.4082 223.691 29.7012V33H222.479V29.7012C222.479 29.2402 222.566 28.8086 222.742 28.4062C222.918 28.0039 223.156 27.6523 223.457 27.3516C223.758 27.0508 224.111 26.8145 224.518 26.6426C224.924 26.4668 225.355 26.3789 225.812 26.3789H230.137V33ZM233.055 33H231.865V26.4023H233.055V33ZM241.1 33H234.783V26.4023H235.984V31.7988H241.1V33ZM243.719 32.0977C243.719 32.2227 243.693 32.3398 243.643 32.4492C243.596 32.5586 243.531 32.6543 243.449 32.7363C243.367 32.8184 243.271 32.8828 243.162 32.9297C243.053 32.9766 242.938 33 242.816 33C242.691 33 242.574 32.9766 242.465 32.9297C242.359 32.8828 242.266 32.8184 242.184 32.7363C242.102 32.6543 242.037 32.5586 241.99 32.4492C241.943 32.3398 241.92 32.2227 241.92 32.0977C241.92 31.9766 241.943 31.8613 241.99 31.752C242.037 31.6426 242.102 31.5469 242.184 31.4648C242.266 31.3828 242.359 31.3184 242.465 31.2715C242.574 31.2246 242.691 31.2012 242.816 31.2012C242.938 31.2012 243.053 31.2246 243.162 31.2715C243.271 31.3184 243.367 31.3828 243.449 31.4648C243.531 31.5469 243.596 31.6426 243.643 31.752C243.693 31.8613 243.719 31.9766 243.719 32.0977ZM252.186 33H247.926C247.461 33 247.039 32.9141 246.66 32.7422C246.281 32.5703 245.957 32.3359 245.688 32.0391C245.418 31.7383 245.209 31.3867 245.061 30.9844C244.916 30.5781 244.844 30.1426 244.844 29.6777C244.844 29.2168 244.916 28.7871 245.061 28.3887C245.209 27.9863 245.418 27.6367 245.688 27.3398C245.957 27.043 246.281 26.8086 246.66 26.6367C247.039 26.4648 247.461 26.3789 247.926 26.3789H252.186V27.5859H247.926C247.637 27.5859 247.375 27.6406 247.141 27.75C246.91 27.8594 246.715 28.0078 246.555 28.1953C246.395 28.3828 246.271 28.6035 246.186 28.8574C246.1 29.1113 246.057 29.3848 246.057 29.6777C246.057 29.9746 246.1 30.252 246.186 30.5098C246.271 30.7637 246.395 30.9863 246.555 31.1777C246.715 31.3652 246.91 31.5137 247.141 31.623C247.375 31.7324 247.637 31.7871 247.926 31.7871H252.186V33ZM261.232 29.6895C261.232 30.1465 261.16 30.5762 261.016 30.9785C260.871 31.377 260.664 31.7266 260.395 32.0273C260.129 32.3281 259.809 32.5664 259.434 32.7422C259.062 32.9141 258.648 33 258.191 33H256.105C255.648 33 255.232 32.9141 254.857 32.7422C254.482 32.5664 254.16 32.3281 253.891 32.0273C253.625 31.7266 253.42 31.377 253.275 30.9785C253.131 30.5762 253.059 30.1465 253.059 29.6895C253.059 29.2363 253.131 28.8105 253.275 28.4121C253.42 28.0137 253.625 27.666 253.891 27.3691C254.16 27.0684 254.482 26.832 254.857 26.6602C255.232 26.4883 255.648 26.4023 256.105 26.4023H258.191C258.648 26.4023 259.062 26.4883 259.434 26.6602C259.809 26.832 260.129 27.0684 260.395 27.3691C260.664 27.666 260.871 28.0137 261.016 28.4121C261.16 28.8105 261.232 29.2363 261.232 29.6895ZM260.031 29.6895C260.031 29.4004 259.988 29.1289 259.902 28.875C259.82 28.6172 259.699 28.3945 259.539 28.207C259.383 28.0156 259.191 27.8652 258.965 27.7559C258.738 27.6426 258.48 27.5859 258.191 27.5859H256.105C255.816 27.5859 255.557 27.6426 255.326 27.7559C255.1 27.8652 254.906 28.0156 254.746 28.207C254.59 28.3945 254.469 28.6172 254.383 28.875C254.301 29.1289 254.26 29.4004 254.26 29.6895C254.26 29.9785 254.301 30.252 254.383 30.5098C254.469 30.7637 254.59 30.9863 254.746 31.1777C254.906 31.3691 255.1 31.5215 255.326 31.6348C255.557 31.7441 255.816 31.7988 256.105 31.7988H258.191C258.48 31.7988 258.738 31.7441 258.965 31.6348C259.191 31.5215 259.383 31.3691 259.539 31.1777C259.699 30.9863 259.82 30.7637 259.902 30.5098C259.988 30.252 260.031 29.9785 260.031 29.6895ZM267.396 33H266.195V29.6777C266.195 29.3887 266.141 29.1172 266.031 28.8633C265.922 28.6094 265.771 28.3887 265.58 28.2012C265.393 28.0098 265.17 27.8594 264.912 27.75C264.658 27.6406 264.387 27.5859 264.098 27.5859H263.758V33H262.557V26.4023H264.098C264.379 26.4023 264.65 26.4375 264.912 26.5078C265.174 26.5742 265.42 26.6699 265.65 26.7949C265.885 26.916 266.1 27.0645 266.295 27.2402C266.494 27.416 266.668 27.6113 266.816 27.8262C266.969 27.6113 267.141 27.416 267.332 27.2402C267.527 27.0645 267.738 26.916 267.965 26.7949C268.191 26.6699 268.432 26.5742 268.686 26.5078C268.939 26.4375 269.205 26.4023 269.482 26.4023H271.018V33H269.816V27.5859H269.482C269.193 27.5859 268.922 27.6445 268.668 27.7617C268.418 27.8789 268.197 28.0391 268.006 28.2422C267.818 28.4453 267.67 28.6836 267.561 28.957C267.451 29.2305 267.396 29.5215 267.396 29.8301V33Z" fill="black"/>
<path d="M347.803 20H342.395C341.812 20 341.283 19.8906 340.807 19.6719C340.33 19.4531 339.922 19.1543 339.582 18.7754C339.246 18.3965 338.986 17.9512 338.803 17.4395C338.619 16.9277 338.527 16.3809 338.527 15.7988C338.527 15.2207 338.619 14.6777 338.803 14.1699C338.986 13.6582 339.246 13.2129 339.582 12.834C339.922 12.4512 340.33 12.1504 340.807 11.9316C341.283 11.709 341.812 11.5977 342.395 11.5977H347.803V12.7988H342.395C341.98 12.7988 341.607 12.8789 341.275 13.0391C340.947 13.1953 340.668 13.4102 340.438 13.6836C340.211 13.9531 340.035 14.2695 339.91 14.6328C339.789 14.9961 339.729 15.3848 339.729 15.7988C339.729 16.2129 339.789 16.6035 339.91 16.9707C340.035 17.334 340.211 17.6523 340.438 17.9258C340.668 18.1953 340.947 18.4082 341.275 18.5645C341.607 18.7207 341.98 18.7988 342.395 18.7988H347.803V20ZM357.951 20H349.262V11.5977H357.951V12.7988H350.463V18.7988H357.951V20ZM356.932 16.4023H351.061V15.2012H356.932V16.4023ZM367.473 20H359.445V11.5977H360.646V18.7988H367.473V20ZM370.168 19.0977C370.168 19.2227 370.145 19.3398 370.098 19.4492C370.051 19.5586 369.986 19.6543 369.904 19.7363C369.822 19.8184 369.727 19.8828 369.617 19.9297C369.508 19.9766 369.393 20 369.271 20C369.146 20 369.029 19.9766 368.92 19.9297C368.811 19.8828 368.715 19.8184 368.633 19.7363C368.551 19.6543 368.486 19.5586 368.439 19.4492C368.393 19.3398 368.369 19.2227 368.369 19.0977C368.369 18.9766 368.393 18.8613 368.439 18.752C368.486 18.6426 368.551 18.5469 368.633 18.4648C368.715 18.3828 368.811 18.3184 368.92 18.2715C369.029 18.2246 369.146 18.2012 369.271 18.2012C369.393 18.2012 369.508 18.2246 369.617 18.2715C369.727 18.3184 369.822 18.3828 369.904 18.4648C369.986 18.5469 370.051 18.6426 370.098 18.752C370.145 18.8613 370.168 18.9766 370.168 19.0977ZM370.168 14.2871C370.168 14.4121 370.145 14.5293 370.098 14.6387C370.051 14.748 369.986 14.8438 369.904 14.9258C369.822 15.0078 369.727 15.0723 369.617 15.1191C369.508 15.166 369.393 15.1895 369.271 15.1895C369.146 15.1895 369.029 15.166 368.92 15.1191C368.811 15.0723 368.715 15.0078 368.633 14.9258C368.551 14.8438 368.486 14.748 368.439 14.6387C368.393 14.5293 368.369 14.4121 368.369 14.2871C368.369 14.166 368.393 14.0508 368.439 13.9414C368.486 13.832 368.551 13.7363 368.633 13.6543C368.715 13.5723 368.811 13.5078 368.92 13.4609C369.029 13.4141 369.146 13.3906 369.271 13.3906C369.393 13.3906 369.508 13.4141 369.617 13.4609C369.727 13.5078 369.822 13.5723 369.904 13.6543C369.986 13.7363 370.051 13.832 370.098 13.9414C370.145 14.0508 370.168 14.166 370.168 14.2871ZM373.402 19.0977C373.402 19.2227 373.377 19.3398 373.326 19.4492C373.279 19.5586 373.215 19.6543 373.133 19.7363C373.051 19.8184 372.955 19.8828 372.846 19.9297C372.736 19.9766 372.621 20 372.5 20C372.375 20 372.258 19.9766 372.148 19.9297C372.043 19.8828 371.949 19.8184 371.867 19.7363C371.785 19.6543 371.721 19.5586 371.674 19.4492C371.627 19.3398 371.604 19.2227 371.604 19.0977C371.604 18.9766 371.627 18.8613 371.674 18.752C371.721 18.6426 371.785 18.5469 371.867 18.4648C371.949 18.3828 372.043 18.3184 372.148 18.2715C372.258 18.2246 372.375 18.2012 372.5 18.2012C372.621 18.2012 372.736 18.2246 372.846 18.2715C372.955 18.3184 373.051 18.3828 373.133 18.4648C373.215 18.5469 373.279 18.6426 373.326 18.752C373.377 18.8613 373.402 18.9766 373.402 19.0977ZM309.043 30.4023H306.342V32.7988H305.146V30.4023H302.445V29.2012H305.146V26.7988H306.342V29.2012H309.043V30.4023ZM318.078 31.2988C318.078 31.6699 318.008 32.0195 317.867 32.3477C317.727 32.6758 317.535 32.9629 317.293 33.209C317.051 33.4512 316.766 33.6445 316.438 33.7891C316.109 33.9297 315.758 34 315.383 34H310.256V32.7988H315.383C315.59 32.7988 315.783 32.7598 315.963 32.6816C316.146 32.6035 316.307 32.498 316.443 32.3652C316.58 32.2285 316.688 32.0684 316.766 31.8848C316.844 31.7012 316.883 31.5059 316.883 31.2988C316.883 31.0918 316.844 30.8984 316.766 30.7188C316.688 30.5352 316.58 30.375 316.443 30.2383C316.307 30.1016 316.146 29.9941 315.963 29.916C315.783 29.8379 315.59 29.7988 315.383 29.7988H310.268V25.5977H317.48V26.7988H311.469V28.5977H315.383C315.758 28.5977 316.109 28.6699 316.438 28.8145C316.766 28.9551 317.051 29.1484 317.293 29.3945C317.535 29.6367 317.727 29.9219 317.867 30.25C318.008 30.5781 318.078 30.9277 318.078 31.2988ZM327.365 31.2988C327.365 31.6699 327.295 32.0195 327.154 32.3477C327.014 32.6758 326.82 32.9629 326.574 33.209C326.332 33.4512 326.047 33.6445 325.719 33.7891C325.391 33.9297 325.041 34 324.67 34H319.566V32.7988H324.67C324.877 32.7988 325.07 32.7598 325.25 32.6816C325.434 32.6035 325.594 32.498 325.73 32.3652C325.867 32.2285 325.975 32.0684 326.053 31.8848C326.131 31.7012 326.17 31.5059 326.17 31.2988V28.2988C326.17 28.0918 326.131 27.8984 326.053 27.7188C325.975 27.5352 325.867 27.375 325.73 27.2383C325.594 27.1016 325.434 26.9941 325.25 26.916C325.07 26.8379 324.877 26.7988 324.67 26.7988H321.67C321.463 26.7988 321.268 26.8379 321.084 26.916C320.9 26.9941 320.74 27.1016 320.604 27.2383C320.471 27.375 320.365 27.5352 320.287 27.7188C320.209 27.8984 320.17 28.0918 320.17 28.2988C320.17 28.5059 320.209 28.7012 320.287 28.8848C320.365 29.0684 320.471 29.2285 320.604 29.3652C320.74 29.498 320.9 29.6035 321.084 29.6816C321.268 29.7598 321.463 29.7988 321.67 29.7988H325.566V31H321.67C321.295 31 320.943 30.9297 320.615 30.7891C320.287 30.6445 320 30.4512 319.754 30.209C319.512 29.9629 319.32 29.6758 319.18 29.3477C319.039 29.0195 318.969 28.6699 318.969 28.2988C318.969 27.9277 319.039 27.5781 319.18 27.25C319.32 26.9219 319.512 26.6367 319.754 26.3945C320 26.1484 320.287 25.9551 320.615 25.8145C320.943 25.6699 321.295 25.5977 321.67 25.5977H324.67C325.041 25.5977 325.391 25.6699 325.719 25.8145C326.047 25.9551 326.332 26.1484 326.574 26.3945C326.82 26.6367 327.014 26.9219 327.154 27.25C327.295 27.5781 327.365 27.9277 327.365 28.2988V31.2988ZM330.881 34H329.68V26.7988H328.479V25.5977H330.881V34ZM345.564 31.2988C345.564 31.6699 345.492 32.0195 345.348 32.3477C345.207 32.6758 345.014 32.9629 344.768 33.209C344.525 33.4512 344.24 33.6445 343.912 33.7891C343.584 33.9297 343.234 34 342.863 34H339.863C339.492 34 339.143 33.9297 338.814 33.7891C338.486 33.6445 338.199 33.4512 337.953 33.209C337.711 32.9629 337.518 32.6758 337.373 32.3477C337.232 32.0195 337.162 31.6699 337.162 31.2988V28.2988C337.162 27.9277 337.232 27.5781 337.373 27.25C337.518 26.9219 337.711 26.6367 337.953 26.3945C338.199 26.1484 338.486 25.9551 338.814 25.8145C339.143 25.6699 339.492 25.5977 339.863 25.5977H344.961V26.7988H339.863C339.656 26.7988 339.461 26.8379 339.277 26.916C339.098 26.9941 338.939 27.1016 338.803 27.2383C338.666 27.375 338.559 27.5352 338.48 27.7188C338.402 27.8984 338.363 28.0918 338.363 28.2988V31.2988C338.363 31.5059 338.402 31.7012 338.48 31.8848C338.559 32.0684 338.666 32.2285 338.803 32.3652C338.939 32.498 339.098 32.6035 339.277 32.6816C339.461 32.7598 339.656 32.7988 339.863 32.7988H342.863C343.07 32.7988 343.264 32.7598 343.443 32.6816C343.627 32.6035 343.787 32.498 343.924 32.3652C344.061 32.2285 344.168 32.0684 344.246 31.8848C344.324 31.7012 344.363 31.5059 344.363 31.2988C344.363 31.0918 344.324 30.8984 344.246 30.7188C344.168 30.5352 344.061 30.375 343.924 30.2383C343.787 30.1016 343.627 29.9941 343.443 29.916C343.264 29.8379 343.07 29.7988 342.863 29.7988H338.961V28.5977H342.863C343.234 28.5977 343.584 28.6699 343.912 28.8145C344.24 28.9551 344.525 29.1484 344.768 29.3945C345.014 29.6367 345.207 29.9219 345.348 30.25C345.492 30.5781 345.564 30.9277 345.564 31.2988ZM354.594 31.2988C354.594 31.6699 354.523 32.0195 354.383 32.3477C354.242 32.6758 354.051 32.9629 353.809 33.209C353.566 33.4512 353.281 33.6445 352.953 33.7891C352.625 33.9297 352.273 34 351.898 34H346.771V32.7988H351.898C352.105 32.7988 352.299 32.7598 352.479 32.6816C352.662 32.6035 352.822 32.498 352.959 32.3652C353.096 32.2285 353.203 32.0684 353.281 31.8848C353.359 31.7012 353.398 31.5059 353.398 31.2988C353.398 31.0918 353.359 30.8984 353.281 30.7188C353.203 30.5352 353.096 30.375 352.959 30.2383C352.822 30.1016 352.662 29.9941 352.479 29.916C352.299 29.8379 352.105 29.7988 351.898 29.7988H346.783V25.5977H353.996V26.7988H347.984V28.5977H351.898C352.273 28.5977 352.625 28.6699 352.953 28.8145C353.281 28.9551 353.566 29.1484 353.809 29.3945C354.051 29.6367 354.242 29.9219 354.383 30.25C354.523 30.5781 354.594 30.9277 354.594 31.2988ZM355.52 25.5977H356.721V28.5977C356.721 28.7617 356.752 28.918 356.814 29.0664C356.877 29.2109 356.963 29.3379 357.072 29.4473C357.182 29.5566 357.309 29.6426 357.453 29.7051C357.602 29.7676 357.758 29.7988 357.922 29.7988H362.721V25.5977H363.922V34H362.721V31H357.922C357.59 31 357.277 30.9375 356.984 30.8125C356.695 30.6836 356.441 30.5117 356.223 30.2969C356.008 30.0781 355.836 29.8242 355.707 29.5352C355.582 29.2422 355.52 28.9297 355.52 28.5977V25.5977ZM373.268 34H365.469V31.5977C365.469 31.2695 365.531 30.9609 365.656 30.6719C365.785 30.3789 365.957 30.125 366.172 29.9102C366.391 29.6914 366.645 29.5195 366.934 29.3945C367.227 29.2656 367.539 29.2012 367.871 29.2012H370.871C371.035 29.2012 371.189 29.1699 371.334 29.1074C371.482 29.0449 371.609 28.959 371.715 28.8496C371.824 28.7402 371.91 28.6133 371.973 28.4688C372.039 28.3203 372.072 28.1641 372.072 28C372.072 27.8359 372.039 27.6816 371.973 27.5371C371.91 27.3887 371.824 27.2598 371.715 27.1504C371.609 27.041 371.482 26.9551 371.334 26.8926C371.189 26.8301 371.035 26.7988 370.871 26.7988H366.072V25.5977H370.871C371.199 25.5977 371.508 25.6621 371.797 25.791C372.09 25.916 372.344 26.0879 372.559 26.3066C372.777 26.5215 372.949 26.7754 373.074 27.0684C373.203 27.3613 373.268 27.6719 373.268 28C373.268 28.3281 373.203 28.6387 373.074 28.9316C372.949 29.2246 372.777 29.4805 372.559 29.6992C372.344 29.9141 372.09 30.0859 371.797 30.2148C371.508 30.3398 371.199 30.4023 370.871 30.4023H367.871C367.707 30.4023 367.551 30.4336 367.402 30.4961C367.254 30.5586 367.125 30.6445 367.016 30.7539C366.906 30.8633 366.818 30.9902 366.752 31.1348C366.689 31.2793 366.658 31.4336 366.658 31.5977V32.7988H373.268V34ZM376.643 34H375.441V26.7988H374.24V25.5977H376.643V34ZM386.826 31.2988C386.826 31.6699 386.754 32.0195 386.609 32.3477C386.469 32.6758 386.275 32.9629 386.029 33.209C385.787 33.4512 385.502 33.6445 385.174 33.7891C384.846 33.9297 384.496 34 384.125 34H381.125C380.754 34 380.404 33.9297 380.076 33.7891C379.748 33.6445 379.461 33.4512 379.215 33.209C378.973 32.9629 378.779 32.6758 378.635 32.3477C378.494 32.0195 378.424 31.6699 378.424 31.2988V28.2988C378.424 27.9277 378.494 27.5781 378.635 27.25C378.779 26.9219 378.973 26.6367 379.215 26.3945C379.461 26.1484 379.748 25.9551 380.076 25.8145C380.404 25.6699 380.754 25.5977 381.125 25.5977H386.223V26.7988H381.125C380.918 26.7988 380.723 26.8379 380.539 26.916C380.359 26.9941 380.201 27.1016 380.064 27.2383C379.928 27.375 379.82 27.5352 379.742 27.7188C379.664 27.8984 379.625 28.0918 379.625 28.2988V31.2988C379.625 31.5059 379.664 31.7012 379.742 31.8848C379.82 32.0684 379.928 32.2285 380.064 32.3652C380.201 32.498 380.359 32.6035 380.539 32.6816C380.723 32.7598 380.918 32.7988 381.125 32.7988H384.125C384.332 32.7988 384.525 32.7598 384.705 32.6816C384.889 32.6035 385.049 32.498 385.186 32.3652C385.322 32.2285 385.43 32.0684 385.508 31.8848C385.586 31.7012 385.625 31.5059 385.625 31.2988C385.625 31.0918 385.586 30.8984 385.508 30.7188C385.43 30.5352 385.322 30.375 385.186 30.2383C385.049 30.1016 384.889 29.9941 384.705 29.916C384.525 29.8379 384.332 29.7988 384.125 29.7988H380.223V28.5977H384.125C384.496 28.5977 384.846 28.6699 385.174 28.8145C385.502 28.9551 385.787 29.1484 386.029 29.3945C386.275 29.6367 386.469 29.9219 386.609 30.25C386.754 30.5781 386.826 30.9277 386.826 31.2988ZM395.604 34H387.805V31.5977C387.805 31.2695 387.867 30.9609 387.992 30.6719C388.121 30.3789 388.293 30.125 388.508 29.9102C388.727 29.6914 388.98 29.5195 389.27 29.3945C389.562 29.2656 389.875 29.2012 390.207 29.2012H393.207C393.371 29.2012 393.525 29.1699 393.67 29.1074C393.818 29.0449 393.945 28.959 394.051 28.8496C394.16 28.7402 394.246 28.6133 394.309 28.4688C394.375 28.3203 394.408 28.1641 394.408 28C394.408 27.8359 394.375 27.6816 394.309 27.5371C394.246 27.3887 394.16 27.2598 394.051 27.1504C393.945 27.041 393.818 26.9551 393.67 26.8926C393.525 26.8301 393.371 26.7988 393.207 26.7988H388.408V25.5977H393.207C393.535 25.5977 393.844 25.6621 394.133 25.791C394.426 25.916 394.68 26.0879 394.895 26.3066C395.113 26.5215 395.285 26.7754 395.41 27.0684C395.539 27.3613 395.604 27.6719 395.604 28C395.604 28.3281 395.539 28.6387 395.41 28.9316C395.285 29.2246 395.113 29.4805 394.895 29.6992C394.68 29.9141 394.426 30.0859 394.133 30.2148C393.844 30.3398 393.535 30.4023 393.207 30.4023H390.207C390.043 30.4023 389.887 30.4336 389.738 30.4961C389.59 30.5586 389.461 30.6445 389.352 30.7539C389.242 30.8633 389.154 30.9902 389.088 31.1348C389.025 31.2793 388.994 31.4336 388.994 31.5977V32.7988H395.604V34ZM398.979 34H397.777V26.7988H396.576V25.5977H398.979V34Z" fill="black"/>
<path d="M442.803 20H437.395C436.812 20 436.283 19.8906 435.807 19.6719C435.33 19.4531 434.922 19.1543 434.582 18.7754C434.246 18.3965 433.986 17.9512 433.803 17.4395C433.619 16.9277 433.527 16.3809 433.527 15.7988C433.527 15.2207 433.619 14.6777 433.803 14.1699C433.986 13.6582 434.246 13.2129 434.582 12.834C434.922 12.4512 435.33 12.1504 435.807 11.9316C436.283 11.709 436.812 11.5977 437.395 11.5977H442.803V12.7988H437.395C436.98 12.7988 436.607 12.8789 436.275 13.0391C435.947 13.1953 435.668 13.4102 435.438 13.6836C435.211 13.9531 435.035 14.2695 434.91 14.6328C434.789 14.9961 434.729 15.3848 434.729 15.7988C434.729 16.2129 434.789 16.6035 434.91 16.9707C435.035 17.334 435.211 17.6523 435.438 17.9258C435.668 18.1953 435.947 18.4082 436.275 18.5645C436.607 18.7207 436.98 18.7988 437.395 18.7988H442.803V20ZM454.188 15.7988C454.188 16.3809 454.096 16.9277 453.912 17.4395C453.729 17.9512 453.467 18.3965 453.127 18.7754C452.791 19.1543 452.387 19.4531 451.914 19.6719C451.441 19.8906 450.916 20 450.338 20H447.543C446.961 20 446.432 19.8906 445.955 19.6719C445.479 19.4531 445.07 19.1543 444.73 18.7754C444.395 18.3965 444.135 17.9512 443.951 17.4395C443.768 16.9277 443.676 16.3809 443.676 15.7988C443.676 15.2207 443.768 14.6777 443.951 14.1699C444.135 13.6582 444.395 13.2129 444.73 12.834C445.07 12.4512 445.479 12.1504 445.955 11.9316C446.432 11.709 446.961 11.5977 447.543 11.5977H450.338C450.916 11.5977 451.441 11.709 451.914 11.9316C452.387 12.1504 452.791 12.4512 453.127 12.834C453.467 13.2129 453.729 13.6582 453.912 14.1699C454.096 14.6777 454.188 15.2207 454.188 15.7988ZM452.986 15.7988C452.986 15.3848 452.926 14.9961 452.805 14.6328C452.684 14.2695 452.508 13.9531 452.277 13.6836C452.051 13.4102 451.773 13.1953 451.445 13.0391C451.121 12.8789 450.752 12.7988 450.338 12.7988H447.543C447.129 12.7988 446.756 12.8789 446.424 13.0391C446.096 13.1953 445.816 13.4102 445.586 13.6836C445.359 13.9531 445.184 14.2695 445.059 14.6328C444.938 14.9961 444.877 15.3848 444.877 15.7988C444.877 16.2129 444.938 16.6035 445.059 16.9707C445.184 17.334 445.359 17.6523 445.586 17.9258C445.816 18.1953 446.096 18.4082 446.424 18.5645C446.756 18.7207 447.129 18.7988 447.543 18.7988H450.338C450.752 18.7988 451.121 18.7207 451.445 18.5645C451.773 18.4082 452.051 18.1953 452.277 17.9258C452.508 17.6523 452.684 17.334 452.805 16.9707C452.926 16.6035 452.986 16.2129 452.986 15.7988ZM464.723 11.5977L464.711 15.7988C464.711 16.1895 464.66 16.5645 464.559 16.9238C464.461 17.2793 464.32 17.6133 464.137 17.9258C463.957 18.2344 463.738 18.5176 463.48 18.7754C463.227 19.0293 462.943 19.248 462.631 19.4316C462.322 19.6113 461.99 19.752 461.635 19.8535C461.279 19.9512 460.908 20 460.521 20H459.637C459.25 20 458.877 19.9512 458.518 19.8535C458.162 19.752 457.828 19.6094 457.516 19.4258C457.207 19.2422 456.926 19.0234 456.672 18.7695C456.418 18.5117 456.199 18.2285 456.016 17.9199C455.836 17.6074 455.695 17.2734 455.594 16.918C455.496 16.5586 455.447 16.1855 455.447 15.7988V11.5977H456.648V15.7988C456.648 16.2129 456.727 16.6035 456.883 16.9707C457.039 17.334 457.252 17.6523 457.521 17.9258C457.795 18.1953 458.113 18.4082 458.477 18.5645C458.84 18.7207 459.227 18.7988 459.637 18.7988H460.521C460.936 18.7988 461.324 18.7207 461.688 18.5645C462.051 18.4082 462.367 18.1953 462.637 17.9258C462.906 17.6523 463.119 17.334 463.275 16.9707C463.432 16.6035 463.51 16.2129 463.51 15.7988V11.5977H464.711H464.723ZM467.658 20H466.457V11.5977H467.055C467.445 11.5977 467.859 11.6484 468.297 11.75C468.738 11.8516 469.188 11.998 469.645 12.1895C470.102 12.3809 470.557 12.6133 471.01 12.8867C471.467 13.1562 471.908 13.4629 472.334 13.8066C472.76 14.1504 473.16 14.5254 473.535 14.9316C473.91 15.334 474.246 15.7637 474.543 16.2207V11.5977H475.744V20H474.543C474.543 19.3828 474.436 18.7891 474.221 18.2188C474.006 17.6445 473.719 17.1035 473.359 16.5957C473 16.0879 472.586 15.6211 472.117 15.1953C471.648 14.7656 471.158 14.3887 470.646 14.0645C470.139 13.7402 469.627 13.4746 469.111 13.2676C468.596 13.0566 468.111 12.916 467.658 12.8457V20ZM482.324 20H481.123V12.7988H476.875V11.5977H486.572V12.7988H482.324V20ZM497.4 20H495.777L493.258 17.5977H489.578V16.4141H494.4C494.65 16.4141 494.885 16.3672 495.104 16.2734C495.322 16.1758 495.512 16.0449 495.672 15.8809C495.836 15.7168 495.965 15.5254 496.059 15.3066C496.152 15.084 496.199 14.8477 496.199 14.5977C496.199 14.3477 496.152 14.1133 496.059 13.8945C495.965 13.6758 495.836 13.4863 495.672 13.3262C495.512 13.1621 495.322 13.0332 495.104 12.9395C494.885 12.8457 494.65 12.7988 494.4 12.7988H488.904V20H487.703V11.5977H494.4C494.814 11.5977 495.203 11.6777 495.566 11.8379C495.93 11.9941 496.246 12.209 496.516 12.4824C496.789 12.752 497.004 13.0684 497.16 13.4316C497.32 13.7949 497.4 14.1836 497.4 14.5977C497.4 14.9727 497.336 15.3281 497.207 15.6641C497.078 15.9961 496.9 16.2949 496.674 16.5605C496.447 16.8223 496.18 17.041 495.871 17.2168C495.566 17.3887 495.236 17.5039 494.881 17.5625L497.4 20ZM508.328 17.5977C508.328 17.9336 508.248 18.248 508.088 18.541C507.932 18.8301 507.717 19.084 507.443 19.3027C507.174 19.5176 506.857 19.6875 506.494 19.8125C506.131 19.9375 505.742 20 505.328 20H498.619V18.7988H505.328C505.574 18.7988 505.807 18.7676 506.025 18.7051C506.244 18.6426 506.434 18.5566 506.594 18.4473C506.758 18.3379 506.887 18.2109 506.98 18.0664C507.078 17.918 507.127 17.7617 507.127 17.5977V17H501.619C501.205 17 500.814 16.9219 500.447 16.7656C500.084 16.6094 499.766 16.3965 499.492 16.127C499.223 15.8535 499.01 15.5352 498.854 15.1719C498.697 14.8047 498.619 14.4141 498.619 14V11.5977H499.82V14C499.82 14.25 499.867 14.4844 499.961 14.7031C500.055 14.9219 500.182 15.1133 500.342 15.2773C500.506 15.4375 500.697 15.5645 500.916 15.6582C501.135 15.752 501.369 15.7988 501.619 15.7988H507.127V11.5977H508.328V17.5977ZM443.898 31.5977C443.898 31.9336 443.834 32.248 443.705 32.541C443.58 32.8301 443.408 33.084 443.189 33.3027C442.975 33.5176 442.721 33.6875 442.428 33.8125C442.135 33.9375 441.824 34 441.496 34H435.807V32.7988H441.496C441.66 32.7988 441.814 32.7676 441.959 32.7051C442.107 32.6426 442.236 32.5566 442.346 32.4473C442.455 32.3379 442.541 32.2109 442.604 32.0664C442.666 31.918 442.697 31.7617 442.697 31.5977C442.697 31.4336 442.666 31.2793 442.604 31.1348C442.541 30.9902 442.455 30.8633 442.346 30.7539C442.236 30.6445 442.107 30.5586 441.959 30.4961C441.814 30.4336 441.66 30.4023 441.496 30.4023H435.807V29.2012H440.295C440.459 29.2012 440.613 29.1699 440.758 29.1074C440.906 29.0449 441.035 28.959 441.145 28.8496C441.254 28.7402 441.34 28.6133 441.402 28.4688C441.465 28.3203 441.496 28.1641 441.496 28C441.496 27.8359 441.465 27.6816 441.402 27.5371C441.34 27.3887 441.254 27.2598 441.145 27.1504C441.035 27.041 440.906 26.9551 440.758 26.8926C440.613 26.8301 440.459 26.7988 440.295 26.7988H435.209V34H434.008V25.5977H440.295C440.623 25.5977 440.934 25.6621 441.227 25.791C441.52 25.916 441.773 26.0879 441.988 26.3066C442.207 26.5215 442.379 26.7754 442.504 27.0684C442.633 27.3613 442.697 27.6719 442.697 28C442.697 28.2539 442.66 28.4941 442.586 28.7207C442.512 28.9434 442.412 29.1504 442.287 29.3418C442.521 29.4238 442.736 29.5391 442.932 29.6875C443.131 29.8359 443.301 30.0078 443.441 30.2031C443.586 30.3984 443.697 30.6152 443.775 30.8535C443.857 31.0879 443.898 31.3359 443.898 31.5977ZM455.336 29.7988C455.336 30.3809 455.244 30.9277 455.061 31.4395C454.877 31.9512 454.615 32.3965 454.275 32.7754C453.939 33.1543 453.535 33.4531 453.062 33.6719C452.59 33.8906 452.064 34 451.486 34H448.691C448.109 34 447.58 33.8906 447.104 33.6719C446.627 33.4531 446.219 33.1543 445.879 32.7754C445.543 32.3965 445.283 31.9512 445.1 31.4395C444.916 30.9277 444.824 30.3809 444.824 29.7988C444.824 29.2207 444.916 28.6777 445.1 28.1699C445.283 27.6582 445.543 27.2129 445.879 26.834C446.219 26.4512 446.627 26.1504 447.104 25.9316C447.58 25.709 448.109 25.5977 448.691 25.5977H451.486C452.064 25.5977 452.59 25.709 453.062 25.9316C453.535 26.1504 453.939 26.4512 454.275 26.834C454.615 27.2129 454.877 27.6582 455.061 28.1699C455.244 28.6777 455.336 29.2207 455.336 29.7988ZM454.135 29.7988C454.135 29.3848 454.074 28.9961 453.953 28.6328C453.832 28.2695 453.656 27.9531 453.426 27.6836C453.199 27.4102 452.922 27.1953 452.594 27.0391C452.27 26.8789 451.9 26.7988 451.486 26.7988H448.691C448.277 26.7988 447.904 26.8789 447.572 27.0391C447.244 27.1953 446.965 27.4102 446.734 27.6836C446.508 27.9531 446.332 28.2695 446.207 28.6328C446.086 28.9961 446.025 29.3848 446.025 29.7988C446.025 30.2129 446.086 30.6035 446.207 30.9707C446.332 31.334 446.508 31.6523 446.734 31.9258C446.965 32.1953 447.244 32.4082 447.572 32.5645C447.904 32.7207 448.277 32.7988 448.691 32.7988H451.486C451.9 32.7988 452.27 32.7207 452.594 32.5645C452.922 32.4082 453.199 32.1953 453.426 31.9258C453.656 31.6523 453.832 31.334 453.953 30.9707C454.074 30.6035 454.135 30.2129 454.135 29.7988ZM464.898 34H456.871V25.5977H458.072V32.7988H464.898V34ZM467.236 34H466.035V25.5977H467.236V34ZM478.633 25.5977L474.215 34H472.844L468.432 25.5977H469.797L473.529 32.7051L477.262 25.5977H478.633ZM481.018 34H479.816V25.5977H481.018V34ZM492.59 34H491.389V31.5977H484.686V30.4023H491.389V26.7988H487.082C486.672 26.7988 486.285 26.8789 485.922 27.0391C485.559 27.1953 485.242 27.4102 484.973 27.6836C484.703 27.9531 484.488 28.2695 484.328 28.6328C484.172 28.9961 484.094 29.3848 484.094 29.7988V34H482.893V29.7988C482.893 29.4121 482.941 29.041 483.039 28.6855C483.141 28.3262 483.281 27.9922 483.461 27.6836C483.645 27.3711 483.863 27.0879 484.117 26.834C484.375 26.5762 484.658 26.3555 484.967 26.1719C485.279 25.9883 485.613 25.8477 485.969 25.75C486.324 25.6484 486.695 25.5977 487.082 25.5977H492.59V34Z" fill="black"/>
<rect x="4.5" y="8.5" width="70" height="28" stroke="black"/>
<rect x="404.5" y="8.5" width="107" height="28" stroke="black"/>
<rect x="276.5" y="8.5" width="125" height="28" stroke="black"/>
<rect x="77.5" y="8.5" width="196" height="28" stroke="black"/>
</svg>
