<svg width="25" height="25" viewBox="0 0 25 25" fill="none" xmlns="http://www.w3.org/2000/svg">
<circle cx="12.5" cy="12.5" r="12" fill="white" stroke="black"/>
<path d="M20.633 8.997C20.646 9.172 20.646 9.346 20.646 9.52C20.646 14.845 16.593 20.981 9.186 20.981C6.904 20.981 4.784 20.32 3 19.172C3.324 19.209 3.636 19.222 3.973 19.222C5.78599 19.2264 7.54765 18.6201 8.974 17.501C8.13342 17.4858 7.31858 17.2085 6.64324 16.7077C5.9679 16.207 5.46578 15.5079 5.207 14.708C5.456 14.745 5.706 14.77 5.968 14.77C6.329 14.77 6.692 14.72 7.029 14.633C6.11676 14.4488 5.29647 13.9543 4.70762 13.2337C4.11876 12.513 3.79769 11.6106 3.799 10.68V10.63C4.336 10.929 4.959 11.116 5.619 11.141C5.06609 10.7736 4.61272 10.275 4.29934 9.68979C3.98596 9.10456 3.82231 8.45085 3.823 7.787C3.823 7.039 4.022 6.353 4.371 5.755C5.38314 7.00002 6.6455 8.01856 8.07634 8.74466C9.50717 9.47075 11.0746 9.88821 12.677 9.97C12.615 9.67 12.577 9.359 12.577 9.047C12.5767 8.51796 12.6807 7.99406 12.8831 7.50524C13.0854 7.01642 13.3821 6.57227 13.7562 6.19819C14.1303 5.8241 14.5744 5.52741 15.0632 5.32508C15.5521 5.12274 16.076 5.01873 16.605 5.019C17.765 5.019 18.812 5.505 19.548 6.291C20.4498 6.11661 21.3145 5.78742 22.104 5.318C21.8034 6.24881 21.1738 7.0381 20.333 7.538C21.1328 7.44678 21.9144 7.23645 22.652 6.914C22.1011 7.7171 21.4185 8.42134 20.633 8.997V8.997Z" fill="black"/>
</svg>
